<?xml version="1.0" encoding="UTF-8"?>
<svg width="24px" height="16px" viewBox="0 0 24 16" version="1.1" xmlns="http://www.w3.org/2000/svg" xmlns:xlink="http://www.w3.org/1999/xlink">
    <!-- Generator: sketchtool 40.3 (33839) - http://www.bohemiancoding.com/sketch -->
    <title>B57A5010-6556-4542-9067-88267AC96647</title>
    <desc>Created with sketchtool.</desc>
    <defs>
        <rect id="path-1" x="0" y="0" width="24" height="16" rx="2"></rect>
        <mask id="mask-2" maskContentUnits="userSpaceOnUse" maskUnits="objectBoundingBox" x="0" y="0" width="24" height="16" fill="white">
            <use xlink:href="#path-1"></use>
        </mask>
    </defs>
    <g id="landing-page-" stroke="none" stroke-width="1" fill="none" fill-rule="evenodd">
        <g id="search" transform="translate(-521.000000, -429.000000)">
            <g id="search-input" transform="translate(510.000000, 260.000000)">
                <g id="Group-6" transform="translate(11.000000, 169.000000)">
                    <use id="Rectangle-7" stroke="#B1BFC7" mask="url(#mask-2)" stroke-width="2" xlink:href="#path-1"></use>
                    <path d="M3.1735,12.5 L3.1735,8.396 L7.858,8.396 L7.858,7.397 L3.1735,7.397 L3.1735,4.4945 L7.9525,4.4945 L7.9525,3.4955 L2.053,3.4955 L2.053,12.5 L3.1735,12.5 Z M15.1711428,12.5 L11.5531428,3.4955 L10.1626428,3.4955 L6.53114283,12.5 L7.81364283,12.5 L8.61014283,10.4885 L13.0921428,10.4885 L13.8886428,12.5 L15.1711428,12.5 Z M12.7681428,9.503 L8.94764283,9.503 L10.8511428,4.643 L12.7681428,9.503 Z M18.4072857,12.662 C19.3387857,12.662 20.1757857,12.419 20.8507857,11.987 L21.7282857,12.9185 L22.4977857,12.2435 L21.6472857,11.339 C22.4302857,10.502 22.8892857,9.341 22.8892857,8.0045 C22.8892857,5.345 21.0667857,3.347 18.4072857,3.347 C15.7477857,3.347 13.9387857,5.345 13.9387857,8.0045 C13.9387857,10.664 15.7477857,12.662 18.4072857,12.662 L18.4072857,12.662 Z M18.4072857,11.663 C16.3822857,11.663 15.0997857,10.097 15.0997857,8.0045 C15.0997857,5.8985 16.3822857,4.346 18.4072857,4.346 C20.4187857,4.346 21.7282857,5.8985 21.7282857,8.0045 C21.7282857,9.0035 21.4177857,9.881 20.8912857,10.529 L19.6222857,9.152 L18.8392857,9.8135 L20.1217857,11.204 C19.6357857,11.501 19.0552857,11.663 18.4072857,11.663 L18.4072857,11.663 Z" id="FAQ" fill="#B1BFC7"></path>
                </g>
            </g>
        </g>
    </g>
</svg>