<?xml version="1.0" encoding="UTF-8"?>
<svg width="42px" height="42px" viewBox="0 0 42 42" version="1.1" xmlns="http://www.w3.org/2000/svg" xmlns:xlink="http://www.w3.org/1999/xlink">
    <!-- Generator: sketchtool 40.3 (33839) - http://www.bohemiancoding.com/sketch -->
    <title>B65D819F-4365-4A96-AC0F-A8A8AF29DCBE</title>
    <desc>Created with sketchtool.</desc>
    <defs></defs>
    <g id="Page-1" stroke="none" stroke-width="1" fill="none" fill-rule="evenodd">
        <g id="support" transform="translate(-720.000000, -495.000000)" fill="#12C48B">
            <g id="tips-and-tricks" transform="translate(720.000000, 494.000000)">
                <g id="idea" transform="translate(0.000000, 1.000000)">
                    <g id="Layer_1">
                        <path d="M4.70186719,13.6299023 L1.04557031,13.6299023 C0.484394531,13.6299023 0.02953125,14.0847656 0.02953125,14.6459414 C0.02953125,15.2071172 0.484394531,15.6619805 1.04557031,15.6619805 L4.70178516,15.6619805 C5.26304297,15.6619805 5.71790625,15.2071172 5.71790625,14.6459414 C5.71790625,14.0847656 5.26304297,13.6299023 4.70186719,13.6299023 Z M40.9541836,13.6299023 L37.2978867,13.6299023 C36.736793,13.6299023 36.2818477,14.0847656 36.2818477,14.6459414 C36.2818477,15.2071172 36.736793,15.6619805 37.2978867,15.6619805 L40.9541836,15.6619805 C41.5152773,15.6619805 41.9702227,15.2071172 41.9702227,14.6459414 C41.9702227,14.0847656 41.5152773,13.6299023 40.9541836,13.6299023 Z M8.88783984,26.7578555 C8.49105469,26.3610703 7.84776563,26.3610703 7.45089844,26.7578555 L4.79144531,29.4173086 C4.39466016,29.8140937 4.39466016,30.4573828 4.79144531,30.85425 C4.98987891,31.0526836 5.24991797,31.1518594 5.509875,31.1518594 C5.76983203,31.1518594 6.02995313,31.0526836 6.22830469,30.85425 L8.88783984,28.1947969 C9.284625,27.7980937 9.284625,27.1547227 8.88783984,26.7578555 Z M35.34825,0.297609375 C34.9513828,-0.0991757812 34.3082578,-0.0991757812 33.9113086,0.297609375 L31.3246992,2.88421875 C30.9279141,3.28100391 30.9279141,3.924375 31.3246992,4.32107813 C31.5232148,4.51934766 31.7832539,4.61860547 32.0432109,4.61860547 C32.303332,4.61860547 32.563207,4.51934766 32.7616406,4.32099609 L35.348168,1.73446875 C35.7449531,1.33768359 35.7449531,0.6943125 35.34825,0.297609375 Z M10.6736602,2.88274219 L8.08844531,0.297609375 C7.69166016,-0.0990117188 7.04828906,-0.0990117188 6.65150391,0.297609375 C6.25471875,0.694394531 6.25471875,1.33776562 6.65150391,1.73455078 L9.23671875,4.31976562 C9.43515234,4.51811719 9.69519141,4.617375 9.95514844,4.617375 C10.2151055,4.617375 10.4752266,4.51811719 10.6735781,4.31976562 C11.0703633,3.92298047 11.0703633,3.27960937 10.6736602,2.88274219 Z M37.2081445,29.4176367 L34.5585352,26.7677813 C34.161668,26.3709961 33.518543,26.3709961 33.1215937,26.7678633 C32.7248086,27.1646484 32.7248086,27.8080195 33.1215937,28.2047227 L35.7712852,30.8544141 C35.9697187,31.0528477 36.2297578,31.1520234 36.4897148,31.1520234 C36.7498359,31.1520234 37.0097109,31.0527656 37.2081445,30.8544141 C37.6049297,30.4577109 37.6049297,29.8143398 37.2081445,29.4176367 Z" id="Combined-Shape"></path>
                        <path d="M20.999918,2.75920312 C13.9741055,2.75920312 8.25825,8.73805078 8.25825,16.0871484 C8.25825,19.50375 9.48207422,23.181375 11.6160352,26.1769922 C13.2549375,28.4775586 14.1211055,31.0372617 14.1211055,33.5794922 L14.1211055,39.9676758 C14.1211055,41.0881406 15.0327187,41.9997539 16.1531836,41.9997539 L25.8467344,41.9997539 C26.9671992,41.9997539 27.8788125,41.0881406 27.8788125,39.9676758 L27.8788125,33.5794922 C27.8788125,31.0373438 28.7449805,28.4775586 30.3837187,26.1769922 C32.5176797,23.181457 33.7415859,19.50375 33.7415859,16.0871484 C33.7414219,8.73805078 28.0255664,2.75920312 20.999918,2.75920312 L20.999918,2.75920312 Z M25.8465703,39.9678398 L16.1530195,39.9678398 L16.1530195,38.6388516 L20.9998359,38.6388516 C21.5610117,38.6388516 22.015957,38.1839883 22.015957,37.6228125 C22.015957,37.0616367 21.5610117,36.6067734 20.9998359,36.6067734 L16.1530195,36.6067734 L16.1530195,35.2778672 L25.8468164,35.2778672 L25.8479648,39.9676758 C25.8478828,39.9678398 25.8474727,39.9678398 25.8465703,39.9678398 L25.8465703,39.9678398 Z M19.5750352,21.0115664 L18.2162695,18.1087266 L23.7834023,18.1087266 L22.4248008,21.0115664 C22.3713164,21.1258359 22.3395703,21.2491289 22.3311211,21.3749648 L21.5432109,33.2457891 L20.456543,33.2457891 L19.6686328,21.3749648 C19.6602656,21.2491289 19.6284375,21.1258359 19.5750352,21.0115664 L19.5750352,21.0115664 Z M28.7285742,24.9980391 C26.9137969,27.5456016 25.9224492,30.3901992 25.8507539,33.2457891 L23.5798008,33.2457891 L24.3460547,21.6999727 L26.3009414,17.5233516 C26.4482695,17.2086797 26.4245625,16.8404414 26.2380234,16.5472617 C26.0515664,16.2541641 25.7281992,16.0765664 25.3807148,16.0765664 L16.618875,16.0765664 C16.2713906,16.0765664 15.9481055,16.2541641 15.7615664,16.5472617 C15.5751094,16.8403594 15.5513203,17.2085977 15.6986484,17.5232695 L17.6536172,21.6998906 L18.4198711,33.245707 L16.1487539,33.245707 C16.0770586,30.3900352 15.085793,27.5455195 13.2709336,24.997957 C11.4043945,22.3777148 10.290082,19.0465078 10.290082,16.0870664 C10.290082,9.85843359 15.0944062,4.79119922 20.9996719,4.79119922 C26.9049375,4.79119922 31.7092617,9.85843359 31.7092617,16.0870664 C31.7094258,19.0466719 30.5951133,22.3778789 28.7285742,24.9980391 L28.7285742,24.9980391 Z" id="Shape"></path>
                    </g>
                </g>
            </g>
        </g>
    </g>
</svg>