<?xml version="1.0" encoding="UTF-8"?>
<svg width="26px" height="26px" viewBox="0 0 26 26" version="1.1" xmlns="http://www.w3.org/2000/svg" xmlns:xlink="http://www.w3.org/1999/xlink">
    <!-- Generator: sketchtool 40.3 (33839) - http://www.bohemiancoding.com/sketch -->
    <title>39B16A76-0466-4E4F-A06C-5266F6A78FDB</title>
    <desc>Created with sketchtool.</desc>
    <defs></defs>
    <g id="landing-page-" stroke="none" stroke-width="1" fill="none" fill-rule="evenodd">
        <g id="search" transform="translate(-519.000000, -377.000000)" stroke-width="0.1" stroke="#FFFFFF" fill="#B1BFC7">
            <g id="search-input" transform="translate(510.000000, 260.000000)">
                <g id="idea" transform="translate(10.000000, 118.000000)">
                    <g id="Layer_1">
                        <path d="M2.68678125,7.78851562 L0.59746875,7.78851562 C0.276796875,7.78851562 0.016875,8.0484375 0.016875,8.36910937 C0.016875,8.68978125 0.276796875,8.94970312 0.59746875,8.94970312 L2.68673438,8.94970312 C3.00745313,8.94970312 3.267375,8.68978125 3.267375,8.36910937 C3.267375,8.0484375 3.00745313,7.78851562 2.68678125,7.78851562 Z M23.4023906,7.78851562 L21.3130781,7.78851562 C20.9924531,7.78851562 20.7324844,8.0484375 20.7324844,8.36910937 C20.7324844,8.68978125 20.9924531,8.94970312 21.3130781,8.94970312 L23.4023906,8.94970312 C23.7230156,8.94970312 23.9829844,8.68978125 23.9829844,8.36910937 C23.9829844,8.0484375 23.7230156,7.78851562 23.4023906,7.78851562 Z M5.07876563,15.2902031 C4.85203125,15.0634687 4.4844375,15.0634687 4.25765625,15.2902031 L2.73796875,16.8098906 C2.51123438,17.036625 2.51123438,17.4042187 2.73796875,17.631 C2.85135938,17.7443906 2.99995313,17.8010625 3.1485,17.8010625 C3.29704688,17.8010625 3.4456875,17.7443906 3.55903125,17.631 L5.07876563,16.1113125 C5.3055,15.884625 5.3055,15.5169844 5.07876563,15.2902031 Z M20.199,0.1700625 C19.9722188,-0.056671875 19.6047188,-0.056671875 19.3778906,0.1700625 L17.8998281,1.648125 C17.6730938,1.87485937 17.6730938,2.2425 17.8998281,2.4691875 C18.0132656,2.58248437 18.1618594,2.63920312 18.3104063,2.63920312 C18.4590469,2.63920312 18.6075469,2.58248437 18.7209375,2.46914062 L20.1989531,0.991125 C20.4256875,0.764390625 20.4256875,0.39675 20.199,0.1700625 Z M6.09923438,1.64728125 L4.62196875,0.1700625 C4.39523438,-0.056578125 4.02759375,-0.056578125 3.80085938,0.1700625 C3.574125,0.396796875 3.574125,0.7644375 3.80085938,0.991171875 L5.278125,2.4684375 C5.39151563,2.58178125 5.54010938,2.6385 5.68865625,2.6385 C5.83720313,2.6385 5.98584375,2.58178125 6.0991875,2.4684375 C6.32592188,2.24170312 6.32592188,1.8740625 6.09923438,1.64728125 Z M21.2617969,16.8100781 L19.7477344,15.295875 C19.5209531,15.0691406 19.1534531,15.0691406 18.926625,15.2959219 C18.6998906,15.5226562 18.6998906,15.8902969 18.926625,16.1169844 L20.4407344,17.6310937 C20.554125,17.7444844 20.7027188,17.8011562 20.8512656,17.8011562 C20.9999063,17.8011562 21.1484063,17.7444375 21.2617969,17.6310937 C21.4885313,17.4044062 21.4885313,17.0367656 21.2617969,16.8100781 Z" id="Combined-Shape"></path>
                        <path d="M11.9999531,1.5766875 C7.98520313,1.5766875 4.719,4.99317187 4.719,9.19265625 C4.719,11.145 5.41832813,13.2465 6.63773438,14.9582812 C7.57425,16.2728906 8.06920313,17.7355781 8.06920313,19.1882812 L8.06920313,22.8386719 C8.06920313,23.4789375 8.590125,23.9998594 9.23039063,23.9998594 L14.7695625,23.9998594 C15.4098281,23.9998594 15.93075,23.4789375 15.93075,22.8386719 L15.93075,19.1882812 C15.93075,17.735625 16.4257031,16.2728906 17.362125,14.9582812 C18.5815313,13.2465469 19.2809063,11.145 19.2809063,9.19265625 C19.2808125,4.99317187 16.0146094,1.5766875 11.9999531,1.5766875 L11.9999531,1.5766875 Z M14.7694688,22.8387656 L9.23029688,22.8387656 L9.23029688,22.0793437 L11.9999063,22.0793437 C12.3205781,22.0793437 12.5805469,21.8194219 12.5805469,21.49875 C12.5805469,21.1780781 12.3205781,20.9181562 11.9999063,20.9181562 L9.23029688,20.9181562 L9.23029688,20.1587812 L14.7696094,20.1587812 L14.7702656,22.8386719 C14.7702188,22.8387656 14.7699844,22.8387656 14.7694688,22.8387656 L14.7694688,22.8387656 Z M11.1857344,12.0066094 L10.4092969,10.3478437 L13.5905156,10.3478437 L12.8141719,12.0066094 C12.7836094,12.0719062 12.7654688,12.1423594 12.7606406,12.2142656 L12.3104063,18.9975938 L11.6894531,18.9975938 L11.2392188,12.2142656 C11.2344375,12.1423594 11.21625,12.0719062 11.1857344,12.0066094 L11.1857344,12.0066094 Z M16.4163281,14.2845938 C15.3793125,15.7403438 14.8128281,17.3658281 14.7718594,18.9975938 L13.4741719,18.9975938 L13.9120313,12.3999844 L15.0291094,10.0133438 C15.1132969,9.83353125 15.09975,9.62310938 14.9931563,9.45557813 C14.8866094,9.28809375 14.7018281,9.18660938 14.5032656,9.18660938 L9.4965,9.18660938 C9.2979375,9.18660938 9.11320313,9.28809375 9.00660938,9.45557813 C8.9000625,9.6230625 8.88646875,9.83348438 8.97065625,10.0132969 L10.0877813,12.3999375 L10.5256406,18.9975469 L9.22785938,18.9975469 C9.18689063,17.3657344 8.62045313,15.7402969 7.58339063,14.2845469 C6.51679688,12.7872656 5.88004688,10.8837188 5.88004688,9.19260938 C5.88004688,5.63339063 8.625375,2.73782813 11.9998125,2.73782813 C15.37425,2.73782813 18.1195781,5.63339063 18.1195781,9.19260938 C18.1196719,10.8838125 17.4829219,12.7873594 16.4163281,14.2845938 L16.4163281,14.2845938 Z" id="Shape"></path>
                    </g>
                </g>
            </g>
        </g>
    </g>
</svg>