<?xml version="1.0" encoding="UTF-8"?>
<svg width="41px" height="41px" viewBox="0 0 41 41" version="1.1" xmlns="http://www.w3.org/2000/svg" xmlns:xlink="http://www.w3.org/1999/xlink">
    <!-- Generator: sketchtool 40.3 (33839) - http://www.bohemiancoding.com/sketch -->
    <title>EBA4105B-1101-41EA-9E90-B8FCFC471B1F</title>
    <desc>Created with sketchtool.</desc>
    <defs>
        <path d="M28.3275,16.5189707 C28.3275,18.0824437 27.454198,18.8513551 26.1490172,18.9951159 L26.1472276,19.94 L25.0144404,19.94 L25.0144404,18.9879577 C24.0850658,18.9086208 23.0811264,18.7069978 23.0811264,18.7069978 L23.2087812,17.6708465 C23.2087812,17.6708465 24.7722542,17.8802242 25.5942557,17.8802242 C26.5791065,17.8802242 27.0306704,17.4382046 27.0306704,16.6000971 C27.0306704,15.9254356 26.6715667,15.6927936 25.455267,15.401693 C23.7414716,14.9596733 23,14.4359307 23,13.0514131 C23,11.6251391 23.8321423,10.9427228 25.1301649,10.8079098 L25.1301649,9.93281827 L26.2653381,9.93281827 L26.2653381,10.8096994 C27.1732382,10.8800885 28.1539133,11.0614299 28.1539133,11.0614299 L28.0495227,12.108915 C28.0495227,12.108915 26.4281875,11.9228015 25.7565085,11.9228015 C24.7835881,11.9228015 24.2854957,12.2717644 24.2854957,12.9583563 C24.2854957,13.7028104 24.7024617,13.8775901 26.05775,14.2498172 C27.7256136,14.7151011 28.3275,15.1577172 28.3275,16.5189707 Z" id="path-1"></path>
        <mask id="mask-2" maskContentUnits="userSpaceOnUse" maskUnits="objectBoundingBox" x="-0.25" y="-0.25" width="5.8275" height="10.5071817">
            <rect x="22.75" y="9.68281827" width="5.8275" height="10.5071817" fill="white"></rect>
            <use xlink:href="#path-1" fill="black"></use>
        </mask>
    </defs>
    <g id="Page-1" stroke="none" stroke-width="1" fill="none" fill-rule="evenodd">
        <g id="support" transform="translate(-162.000000, -497.000000)">
            <g id="getting-started" transform="translate(160.000000, 494.000000)">
                <g id="rocket-ship" transform="translate(2.000000, 3.000000)">
                    <g id="Layer_1">
                        <g id="Group">
                            <path d="M40.7382091,0.872347607 C40.6925013,0.502677582 40.4013577,0.211534005 40.031796,0.165826196 C36.7014081,-0.246085642 33.2647657,0.112969773 30.0922972,1.20378338 C26.9195038,2.29470529 23.9883552,4.12529219 21.6159899,6.49765743 L16.2022141,11.9114332 L8.3875869,12.9192796 C8.2094131,12.9422418 8.04402015,13.0235844 7.91696977,13.1505264 L0.382438287,20.6850579 C0.169171285,20.8983249 0.0916196474,21.2123224 0.181193955,21.5004332 C0.270551637,21.7885441 0.512413098,22.0033275 0.808972292,22.0582418 L6.50587657,23.1134207 L7.62528463,24.2328287 L5.24208816,25.5233703 C5.01658186,25.6454383 4.86191184,25.866937 4.82497733,26.1207128 C4.78804282,26.3744887 4.87306801,26.6307557 5.05438287,26.8120705 L14.0917481,35.8494358 C14.2452267,36.0029144 14.4523199,36.087398 14.6662368,36.087398 C14.7050126,36.087398 14.7442217,36.0845819 14.7832141,36.0789496 C15.0369899,36.0420151 15.2584887,35.8873451 15.3805567,35.6618388 L16.6712065,33.2786423 L17.7906146,34.3980504 L18.8457935,40.0949547 C18.9008161,40.3916222 19.1154912,40.6333753 19.403602,40.7228413 C19.4827783,40.7474282 19.5639043,40.7593426 19.6444887,40.7593426 C19.8567809,40.7593426 20.0643073,40.6760504 20.2190856,40.5213804 L27.7536171,32.9868489 C27.8805592,32.8599068 27.9619018,32.6944055 27.984864,32.5163401 L28.9928186,24.7016045 L34.4065945,19.2877204 C36.7789597,16.9153552 38.6095466,13.9843149 39.7004685,10.8115214 C40.7911738,7.6390529 41.1500126,4.20197733 40.7382091,0.872347607 L40.7382091,0.872347607 Z M6.62967758,21.4842947 L2.62331234,20.7422469 L8.87001008,14.4953325 L14.3215869,13.7922771 L6.62967758,21.4842947 L6.62967758,21.4842947 Z M14.4705164,33.9307909 L6.97324433,26.4336272 L8.82376071,25.4315214 L15.4725139,32.0803829 L14.4705164,33.9307909 L14.4705164,33.9307909 Z M26.4087028,32.0340252 L20.1618967,38.2808312 L19.4197406,34.2745743 L27.1117582,26.5825567 L26.4087028,32.0340252 L26.4087028,32.0340252 Z M33.2575088,18.1391763 L18.5432771,32.8534081 L8.0506272,22.3607582 L22.7648589,7.64641814 C24.902728,5.50844081 27.5308186,3.84725441 30.3778086,2.82760202 C30.745529,4.72220151 31.6719244,6.47978589 33.0481411,7.85589421 C34.4242494,9.23211083 36.1817254,10.1585063 38.0764332,10.526335 C37.0566725,13.3731083 35.3953778,16.001199 33.2575088,18.1391763 L33.2575088,18.1391763 Z M38.5654635,8.96544584 C36.9187909,8.68459194 35.3870378,7.89716121 34.1969018,6.7071335 C33.0067657,5.51710579 32.2194433,3.98524433 31.9385894,2.33857179 C34.2934081,1.70396977 36.7670453,1.48756171 39.1944332,1.70960202 C39.4165819,4.13698992 39.2000655,6.6106272 38.5654635,8.96544584 L38.5654635,8.96544584 Z" id="Shape" fill="#12C48B"></path>
                            <path d="M8.65414358,32.403262 C8.33678841,32.0860151 7.82252141,32.0860151 7.50527456,32.403262 L0.53559194,39.3728363 C0.218345088,39.6900831 0.218345088,40.2044584 0.53559194,40.521597 C0.694269521,40.6801662 0.902229219,40.7595592 1.1100806,40.7595592 C1.31793199,40.7595592 1.52589169,40.6802746 1.68456927,40.521597 L8.65414358,33.5520227 C8.97128212,33.2348841 8.97128212,32.7205088 8.65414358,32.403262 L8.65414358,32.403262 Z" id="Shape" fill="#12C48B"></path>
                            <path d="M9.72621914,34.6243149 L6.58613602,37.764398 C6.26888917,38.0816448 6.26888917,38.5960202 6.58613602,38.9131587 C6.7448136,39.071728 6.9527733,39.1511209 7.16062469,39.1511209 C7.36847607,39.1511209 7.57643577,39.0718363 7.73511335,38.9131587 L10.8751965,35.7730756 C11.1924433,35.4558287 11.1924433,34.9414534 10.8751965,34.6243149 C10.5578413,34.307068 10.0435743,34.307068 9.72621914,34.6243149 L9.72621914,34.6243149 Z" id="Shape" fill="#12C48B"></path>
                            <path d="M6.25428331,39.7470979 C6.34119821,39.9534064 6.17194289,39.5412468 6.25428331,39.7470979 L6.25428331,39.7470979 L6.25428331,39.7470979 Z" id="Shape" fill="#000000"></path>
                            <path d="M5.37801826,30.2379351 L2.23793514,33.3780183 C1.92068829,33.6952651 1.92068829,34.2096404 2.23793514,34.526779 C2.39661272,34.6853482 2.60457242,34.7647412 2.8124238,34.7647412 C3.02027519,34.7647412 3.22823489,34.6854565 3.38691247,34.526779 L6.52699559,31.3866958 C6.84413413,31.0695573 6.84413413,30.555182 6.52688728,30.2379351 C6.20953212,29.9206883 5.69526511,29.9206883 5.37801826,30.2379351 Z" id="Shape" fill="#12C48B"></path>
                            <g id="logo">
                                <use fill="#12C48B" fill-rule="evenodd" xlink:href="#path-1"></use>
                                <use stroke="#12C48B" mask="url(#mask-2)" stroke-width="0.5" xlink:href="#path-1"></use>
                            </g>
                        </g>
                    </g>
                </g>
            </g>
        </g>
    </g>
</svg>