<?xml version="1.0" encoding="UTF-8"?>
<svg width="24px" height="24px" viewBox="0 0 24 24" version="1.1" xmlns="http://www.w3.org/2000/svg" xmlns:xlink="http://www.w3.org/1999/xlink">
    <!-- Generator: sketchtool 40.3 (33839) - http://www.bohemiancoding.com/sketch -->
    <title>A34B0B1C-EA24-4E59-BE17-80BF07D96CE0</title>
    <desc>Created with sketchtool.</desc>
    <defs>
        <path d="M16.5819512,9.6696414 C16.5819512,10.5848451 16.0707501,11.0349396 15.3067418,11.1190922 L15.3056942,11.6721951 L14.6425993,11.6721951 L14.6425993,11.1149021 C14.0985751,11.068461 13.5109033,10.9504377 13.5109033,10.9504377 L13.585628,10.3439101 C13.585628,10.3439101 14.5008317,10.4664727 14.9820033,10.4664727 C15.5585014,10.4664727 15.8228315,10.2077295 15.8228315,9.71713003 C15.8228315,9.32220618 15.6126244,9.18602555 14.9006441,9.01562516 C13.8974468,8.75688195 13.4634146,8.45030092 13.4634146,7.63985154 C13.4634146,6.80495949 13.9505223,6.40549628 14.7103404,6.32658135 L14.7103404,5.81433265 L15.3748321,5.81433265 L15.3748321,6.32762889 C15.9062858,6.36883227 16.4803395,6.47498333 16.4803395,6.47498333 L16.4192328,7.08814537 C16.4192328,7.08814537 15.4701585,6.97920087 15.0769806,6.97920087 C14.5074662,6.97920087 14.2158999,7.18347182 14.2158999,7.58537929 C14.2158999,8.02115733 14.4599776,8.1234674 15.2533171,8.34135642 C16.2296275,8.61371769 16.5819512,8.87281008 16.5819512,9.6696414 Z" id="path-1"></path>
        <mask id="mask-2" maskContentUnits="userSpaceOnUse" maskUnits="objectBoundingBox" x="-0.1" y="-0.1" width="3.31853659" height="6.05786247">
            <rect x="13.3634146" y="5.71433265" width="3.31853659" height="6.05786247" fill="white"></rect>
            <use xlink:href="#path-1" fill="black"></use>
        </mask>
    </defs>
    <g id="landing-page-" stroke="none" stroke-width="1" fill="none" fill-rule="evenodd">
        <g id="search" transform="translate(-521.000000, -336.000000)">
            <g id="search-input" transform="translate(510.000000, 260.000000)">
                <g id="Group" transform="translate(11.000000, 76.000000)">
                    <path d="M23.8467565,0.510642502 C23.8200007,0.294250292 23.6495752,0.123824783 23.4332464,0.0970689931 C21.4837511,-0.144050132 19.472058,0.0661286478 17.6150033,0.704653683 C15.7577583,1.34324212 14.041964,2.41480519 12.6532624,3.80350679 L9.48422289,6.97254629 L4.90980697,7.56250513 C4.80551011,7.57594643 4.70869472,7.62356159 4.63432377,7.69786914 L0.223866314,12.1083266 C0.0990270934,12.2331658 0.0536310131,12.4169692 0.106064754,12.5856195 C0.15837169,12.7542697 0.299949131,12.8799966 0.473544756,12.9121415 L3.80831799,13.5298072 L4.46358125,14.1850705 L3.06853941,14.9405094 C2.93653573,15.0119639 2.84599717,15.1416217 2.82437697,15.2901734 C2.80275677,15.4387251 2.85252762,15.588735 2.95866314,15.6948706 L8.24882816,20.9850356 C8.33866929,21.0748767 8.45989458,21.1243305 8.58511421,21.1243305 C8.60781225,21.1243305 8.6307639,21.1226821 8.65358874,21.1193851 C8.80214044,21.0977649 8.93179824,21.0072264 9.00325269,20.8752227 L9.75875505,19.4801809 L10.4140183,20.1354441 L11.031684,23.4702174 C11.0638924,23.6438764 11.1895558,23.7853904 11.3582061,23.8377608 C11.4045532,23.8521531 11.4520415,23.8591274 11.4992129,23.8591274 C11.6234815,23.8591274 11.7449604,23.810371 11.8355623,23.7198324 L16.2460198,19.3093749 C16.3203273,19.2350674 16.3679425,19.1381886 16.3813838,19.0339552 L16.971406,14.4594758 L20.1404455,11.2903729 C21.5291471,9.90167132 22.6007102,8.18594041 23.2392986,6.32869546 C23.8777603,4.47164072 24.0878123,2.45969405 23.8467565,0.510642502 L23.8467565,0.510642502 Z M3.88078688,12.5761725 L1.53559747,12.141803 L5.19220102,8.48507268 L8.38336794,8.07352805 L3.88078688,12.5761725 L3.88078688,12.5761725 Z M8.47054617,19.8619264 L4.08189912,15.4733428 L5.16512822,14.8867442 L9.05708128,18.7787607 L8.47054617,19.8619264 L8.47054617,19.8619264 Z M15.4587528,18.7516245 L11.8020859,22.4082915 L11.367653,20.0631654 L15.8702975,15.560521 L15.4587528,18.7516245 L15.4587528,18.7516245 Z M19.46781,10.6180544 L10.8546012,19.2312633 L4.71256227,13.0892243 L13.3257711,4.47595208 C14.5772066,3.22445315 16.1156012,2.25205136 17.7821318,1.65518167 C17.9973828,2.76421552 18.5396631,3.7930454 19.3452533,4.59857222 C20.1507801,5.40416244 21.1795466,5.94644271 22.2886439,6.16175708 C21.6917108,7.82816096 20.7192456,9.36655551 19.46781,10.6180544 L19.46781,10.6180544 Z M22.5749054,5.24806586 C21.6109996,5.08366357 20.7143636,4.62272851 20.0176986,3.92612693 C19.3210336,3.22952534 18.8601619,2.33282595 18.6957597,1.36892007 C20.0741901,0.997445721 21.5221729,0.870767832 22.9430829,1.00074264 C23.0731211,2.42165264 22.9463798,3.86963544 22.5749054,5.24806586 L22.5749054,5.24806586 Z" id="Shape" fill="#B1BFC7"></path>
                    <path d="M5.06584014,18.9677631 C4.88007127,18.7820576 4.57903692,18.7820576 4.39333145,18.9677631 L0.313517233,23.0475139 C0.127811759,23.2332194 0.127811759,23.5343171 0.313517233,23.7199592 C0.406401671,23.8127802 0.528134177,23.8592542 0.649803281,23.8592542 C0.771472384,23.8592542 0.89320489,23.8128436 0.986089329,23.7199592 L5.06584014,19.6402084 C5.25148221,19.4545663 5.25148221,19.1534686 5.06584014,18.9677631 L5.06584014,18.9677631 Z" id="Shape" fill="#B1BFC7"></path>
                    <path d="M5.69339657,20.2678916 L3.85529913,22.1059891 C3.66959366,22.2916945 3.66959366,22.5927923 3.85529913,22.7784344 C3.94818357,22.8712554 4.06991608,22.9177293 4.19158518,22.9177293 C4.31325429,22.9177293 4.43498679,22.8713188 4.52787123,22.7784344 L6.36596867,20.9403369 C6.55167414,20.7546314 6.55167414,20.4535337 6.36596867,20.2678916 C6.18019979,20.0821862 5.87916545,20.0821862 5.69339657,20.2678916 L5.69339657,20.2678916 Z" id="Shape" fill="#B1BFC7"></path>
                    <path d="M3.66104389,23.2665939 C3.7119209,23.3873598 3.61284462,23.1460957 3.66104389,23.2665939 L3.66104389,23.2665939 L3.66104389,23.2665939 Z" id="Shape" fill="#B1BFC7"></path>
                    <path d="M3.14810825,17.7002547 L1.31001081,19.5383522 C1.12430534,19.7240576 1.12430534,20.0251554 1.31001081,20.2107974 C1.40289525,20.3036185 1.52462776,20.3500924 1.64629686,20.3500924 C1.76796596,20.3500924 1.88969847,20.3036819 1.98258291,20.2107974 L3.82068035,18.3727 C4.00632242,18.1870579 4.00632242,17.8859602 3.82061694,17.7002547 C3.63484807,17.5145492 3.33381372,17.5145492 3.14810825,17.7002547 Z" id="Shape" fill="#B1BFC7"></path>
                    <g id="logo">
                        <use fill="#B1BFC7" fill-rule="evenodd" xlink:href="#path-1"></use>
                        <use stroke="#B1BFC7" mask="url(#mask-2)" stroke-width="0.2" xlink:href="#path-1"></use>
                    </g>
                </g>
            </g>
        </g>
    </g>
</svg>